<?xml version="1.0" encoding="iso-8859-1"?>
<!-- Generator: Adobe Illustrator 19.0.0, SVG Export Plug-In . SVG Version: 6.00 Build 0)  -->
<svg version="1.1" id="Layer_1" xmlns="http://www.w3.org/2000/svg" xmlns:xlink="http://www.w3.org/1999/xlink" x="0px" y="0px"
	 viewBox="0 0 512 512" style="enable-background:new 0 0 512 512;" xml:space="preserve">
<rect x="28.885" y="68.634" style="fill:#FFCA66;" width="454.222" height="350.784"/>
<path style="fill:#E6B251;" d="M494.64,395.456H17.36c-9.588,0-17.36,7.773-17.36,17.36v13.192c0,9.588,7.773,17.36,17.36,17.36
	H494.64c9.588,0,17.36-7.773,17.36-17.36v-13.192C512,403.228,504.227,395.456,494.64,395.456z"/>
<path style="opacity:0.15;fill:#333333;enable-background:new    ;" d="M0,418.481v7.526c0,9.588,7.773,17.36,17.36,17.36H494.64
	c9.588,0,17.36-7.773,17.36-17.36v-7.526H0z"/>
<rect x="68.548" y="108.296" style="fill:#4DBF69;" width="374.898" height="247.503"/>
<polygon style="opacity:0.15;fill:#333333;enable-background:new    ;" points="443.451,108.295 96.974,108.295 68.548,108.295 
	68.548,136.258 68.548,355.793 96.974,355.793 96.974,136.258 443.451,136.258 "/>
<g>
</g>
<g>
</g>
<g>
</g>
<g>
</g>
<g>
</g>
<g>
</g>
<g>
</g>
<g>
</g>
<g>
</g>
<g>
</g>
<g>
</g>
<g>
</g>
<g>
</g>
<g>
</g>
<g>
</g>
</svg>
